<svg id="Layer_1" data-name="Layer 1" xmlns="http://www.w3.org/2000/svg" viewBox="0 0 318.64 412.03"><defs><style>.cls-1,.cls-2,.cls-3{fill:none;stroke-miterlimit:10;}.cls-1{stroke:red;stroke-width:5px;stroke-dasharray:11.93 11.93;}.cls-2{stroke:#fff;}.cls-2,.cls-3{stroke-width:3px;}.cls-3{stroke:#ccc;}.cls-4{font-size:82.5px;fill:#fff;font-family:Roboto-Medium, Roboto;font-weight:500;}</style></defs><rect class="cls-1" x="2.5" y="2.5" width="313.64" height="313.64" rx="21.97"/><circle class="cls-2" cx="159.32" cy="159.32" r="120.4"/><path class="cls-2" d="M257.86,94.15c21.7,20.8,27.95,50.44,16.25,70.53a38.53,38.53,0,0,0,7.2-5.91c18.7-19.5,13.92-54.41-10.66-78S211,54,192.29,73.48a38.9,38.9,0,0,0-5.59,7.45C206.27,68.38,236.15,73.36,257.86,94.15Z" transform="translate(-40.68 -5.36)"/><circle class="cls-3" cx="119.16" cy="203.65" r="93.38"/><path class="cls-3" d="M201,151.44c17.87,15,24.24,37.59,16.23,53.74a30.78,30.78,0,0,0,5.27-5c13.45-16.06,7.95-42.83-12.29-59.78s-47.56-17.68-61-1.61a30.63,30.63,0,0,0-3.94,6C159.7,134.17,183.09,136.47,201,151.44Z" transform="translate(-40.68 -5.36)"/><text class="cls-4" transform="translate(70.35 389.68)">InCA</text></svg>